<svg xmlns="http://www.w3.org/2000/svg" width="211.642" height="26.594" viewBox="0 0 211.642 26.594"><defs><style>.a{fill:#282222;}</style></defs><g transform="translate(-11.2 -8.6)"><g transform="translate(81.613 22.554)"><path class="a" d="M224.617,61.969h.944v5.46h-.944v-.775a2.283,2.283,0,0,1-1.854.91,2.891,2.891,0,0,1,0-5.764,2.2,2.2,0,0,1,1.854.91Zm-3.539,2.73a1.833,1.833,0,0,0,1.786,2.056,1.893,1.893,0,0,0,1.82-2.056,1.844,1.844,0,0,0-1.82-2.022A1.805,1.805,0,0,0,221.077,64.7Z" transform="translate(-220.1 -57.823)"/><path class="a" d="M258.251,63.618a2.163,2.163,0,0,0-1.719-.809,2.043,2.043,0,0,0,0,4.078,2.237,2.237,0,0,0,1.753-.843v1.146a2.922,2.922,0,0,1-1.753.573,2.882,2.882,0,1,1,0-5.764,2.627,2.627,0,0,1,1.685.539v1.079Z" transform="translate(-242.308 -57.955)"/><path class="a" d="M273.7,62.1h.944v.607A1.57,1.57,0,0,1,275.891,62a1.751,1.751,0,0,1,.843.236l-.438.843a.982.982,0,0,0-.539-.169,1.047,1.047,0,0,0-.775.337,2.293,2.293,0,0,0-.3,1.483v2.9h-.944V62.1Z" transform="translate(-255.633 -57.955)"/><path class="a" d="M290.491,66.113a3.383,3.383,0,0,1-.674.876,2.7,2.7,0,0,1-1.82.674,2.624,2.624,0,0,1-2.7-2.865,2.668,2.668,0,0,1,2.663-2.9,2.378,2.378,0,0,1,2.056,1.011,3.588,3.588,0,0,1,.506,2.056h-4.247a1.727,1.727,0,0,0,1.753,1.854,1.615,1.615,0,0,0,1.112-.4,2.438,2.438,0,0,0,.573-.742Zm-.944-1.955a1.656,1.656,0,0,0-1.618-1.416,1.688,1.688,0,0,0-1.618,1.416Z" transform="translate(-263.323 -57.889)"/><path class="a" d="M310.617,61.969h.944v5.46h-.944v-.775a2.283,2.283,0,0,1-1.854.91,2.891,2.891,0,0,1,0-5.764,2.2,2.2,0,0,1,1.854.91Zm-3.573,2.73a1.833,1.833,0,0,0,1.786,2.056,1.893,1.893,0,0,0,1.82-2.056,1.844,1.844,0,0,0-1.82-2.022A1.823,1.823,0,0,0,307.044,64.7Z" transform="translate(-277.113 -57.823)"/><path class="a" d="M329.517,59.265v4.584h-.944V59.265H328v-.876h.573V56.4h.944v1.989h.944v.876Z" transform="translate(-291.631 -54.243)"/><path class="a" d="M339.974,54.2a.674.674,0,1,1-.674.674A.676.676,0,0,1,339.974,54.2Zm.472,2.73v5.46H339.5V56.93Z" transform="translate(-299.122 -52.784)"/><path class="a" d="M348.512,62.3l1.618,3.674,1.618-3.674h1.045l-2.7,5.831L347.4,62.3Z" transform="translate(-304.492 -58.154)"/><path class="a" d="M372.691,66.113a3.384,3.384,0,0,1-.674.876,2.7,2.7,0,0,1-1.82.674,2.624,2.624,0,0,1-2.7-2.865,2.668,2.668,0,0,1,2.663-2.9,2.378,2.378,0,0,1,2.056,1.011,3.588,3.588,0,0,1,.506,2.056h-4.247a1.727,1.727,0,0,0,1.753,1.854,1.615,1.615,0,0,0,1.112-.4,2.437,2.437,0,0,0,.573-.742Zm-.944-1.955a1.656,1.656,0,0,0-1.618-1.416,1.688,1.688,0,0,0-1.618,1.416Z" transform="translate(-317.817 -57.889)"/><path class="a" d="M403.817,50h.944v9.606h-.944v-.775a2.283,2.283,0,0,1-1.854.91,2.891,2.891,0,0,1,0-5.764,2.2,2.2,0,0,1,1.854.91Zm-3.539,6.876a1.833,1.833,0,0,0,1.786,2.056,1.893,1.893,0,0,0,1.82-2.056,1.844,1.844,0,0,0-1.82-2.022A1.805,1.805,0,0,0,400.277,56.876Z" transform="translate(-338.898 -50)"/><path class="a" d="M422.474,54.2a.674.674,0,1,1-.674.674A.676.676,0,0,1,422.474,54.2Zm.472,2.73v5.46H422V56.93Z" transform="translate(-353.814 -52.784)"/><path class="a" d="M436.083,62.1h.944v5.326a3.38,3.38,0,0,1-.539,2.157A2.675,2.675,0,0,1,434.3,70.6a2.7,2.7,0,0,1-1.955-.742,2.478,2.478,0,0,1-.708-1.753h.944a1.6,1.6,0,0,0,.438,1.146,1.724,1.724,0,0,0,1.315.539,1.505,1.505,0,0,0,1.449-.775,2.581,2.581,0,0,0,.3-1.382v-.775a2.283,2.283,0,0,1-1.854.91,2.476,2.476,0,0,1-1.854-.742,2.938,2.938,0,0,1-.775-2.157,2.971,2.971,0,0,1,.775-2.124A2.779,2.779,0,0,1,434.229,62a2.18,2.18,0,0,1,1.854.91Zm-3,1.213a2.017,2.017,0,0,0-.539,1.517,2.226,2.226,0,0,0,.607,1.618,1.689,1.689,0,0,0,1.18.438,1.651,1.651,0,0,0,1.213-.472,2.378,2.378,0,0,0,.034-3.135,1.732,1.732,0,0,0-1.247-.472A1.858,1.858,0,0,0,433.083,63.315Z" transform="translate(-360.311 -57.955)"/><path class="a" d="M455.074,54.2a.674.674,0,1,1-.674.674A.676.676,0,0,1,455.074,54.2Zm.472,2.73v5.46H454.6V56.93Z" transform="translate(-375.426 -52.784)"/><path class="a" d="M465.017,59.265v4.584h-.944V59.265H463.5v-.876h.573V56.4h.944v1.989h.944v.876Z" transform="translate(-381.459 -54.243)"/><path class="a" d="M478.917,61.969h.944v5.46h-.944v-.775a2.283,2.283,0,0,1-1.854.91,2.891,2.891,0,0,1,0-5.764,2.2,2.2,0,0,1,1.854.91Zm-3.539,2.73a1.833,1.833,0,0,0,1.786,2.056,1.893,1.893,0,0,0,1.82-2.056,1.844,1.844,0,0,0-1.82-2.022A1.805,1.805,0,0,0,475.377,64.7Z" transform="translate(-388.685 -57.823)"/><path class="a" d="M498.844,50v9.606H497.9V50Z" transform="translate(-404.264 -50)"/><path class="a" d="M522.617,61.969h.944v5.46h-.944v-.775a2.283,2.283,0,0,1-1.854.91,2.891,2.891,0,0,1,0-5.764,2.2,2.2,0,0,1,1.854.91Zm-3.573,2.73a1.833,1.833,0,0,0,1.786,2.056,1.893,1.893,0,0,0,1.82-2.056,1.844,1.844,0,0,0-1.82-2.022A1.823,1.823,0,0,0,519.044,64.7Z" transform="translate(-417.655 -57.823)"/><path class="a" d="M545.183,62.1h.944v5.326a3.38,3.38,0,0,1-.539,2.157A2.675,2.675,0,0,1,543.4,70.6a2.7,2.7,0,0,1-1.955-.742,2.478,2.478,0,0,1-.708-1.753h.944a1.6,1.6,0,0,0,.438,1.146,1.724,1.724,0,0,0,1.315.539,1.505,1.505,0,0,0,1.449-.775,2.581,2.581,0,0,0,.3-1.382v-.775a2.283,2.283,0,0,1-1.854.91,2.476,2.476,0,0,1-1.854-.742,2.938,2.938,0,0,1-.775-2.157,2.971,2.971,0,0,1,.775-2.124A2.779,2.779,0,0,1,543.329,62a2.179,2.179,0,0,1,1.854.91Zm-3,1.213a2.017,2.017,0,0,0-.539,1.517,2.226,2.226,0,0,0,.607,1.618,1.689,1.689,0,0,0,1.18.438,1.651,1.651,0,0,0,1.213-.472,2.378,2.378,0,0,0,.034-3.135,1.836,1.836,0,0,0-2.494.034Z" transform="translate(-432.637 -57.955)"/><path class="a" d="M568.191,66.113a3.385,3.385,0,0,1-.674.876,2.7,2.7,0,0,1-1.82.674A2.624,2.624,0,0,1,563,64.8a2.668,2.668,0,0,1,2.663-2.9,2.378,2.378,0,0,1,2.056,1.011,3.588,3.588,0,0,1,.506,2.056h-4.247a1.727,1.727,0,0,0,1.753,1.854,1.615,1.615,0,0,0,1.112-.4,2.438,2.438,0,0,0,.573-.742Zm-.91-1.955a1.656,1.656,0,0,0-1.618-1.416,1.688,1.688,0,0,0-1.618,1.416Z" transform="translate(-447.421 -57.889)"/><path class="a" d="M584.734,62.035h.944v.64a2.034,2.034,0,0,1,3.168-.034,2.439,2.439,0,0,1,.3,1.449v3.371h-.977V64.091a1.8,1.8,0,0,0-.236-1.011,1.066,1.066,0,0,0-.91-.4,1.323,1.323,0,0,0-.977.4,2.315,2.315,0,0,0-.4,1.483v2.865H584.7V62.035Z" transform="translate(-461.807 -57.889)"/><path class="a" d="M608.651,63.618a2.163,2.163,0,0,0-1.719-.809,2.043,2.043,0,0,0,0,4.078,2.237,2.237,0,0,0,1.753-.843v1.146a2.922,2.922,0,0,1-1.753.573,2.882,2.882,0,1,1,0-5.764,2.627,2.627,0,0,1,1.685.539v1.079Z" transform="translate(-474.601 -57.955)"/><path class="a" d="M624.328,67.255,621.8,62.3h1.079l1.921,3.91,1.786-3.91h1.045l-4.011,8.494h-1.045Z" transform="translate(-486.402 -58.154)"/></g><g transform="translate(11.2 8.6)"><path class="a" d="M11.2,26.4V12.544L22.289,8.6v3.944H25.9v1.483H22.424V33.408h-.876a13.84,13.84,0,0,1-5.292-.944,8.245,8.245,0,0,1-3.708-2.528A5.228,5.228,0,0,1,11.2,26.4Z" transform="translate(-11.2 -8.6)"/><path class="a" d="M78.9,34.064l1.213.27a13.19,13.19,0,0,1-1.079,1.753,6.313,6.313,0,0,1-1.079,1.146,11.782,11.782,0,0,1-8.359,2.9,12.61,12.61,0,0,1-5.932-1.348,10.693,10.693,0,0,1-2.292-1.618,9.144,9.144,0,0,1-1.719-2.157A10.376,10.376,0,0,1,58.2,29.514a9.774,9.774,0,0,1,.843-3.944A11.486,11.486,0,0,1,61.3,22.132,10.159,10.159,0,0,1,68.818,19.2h.506V38.885c.674.067,1.112.135,1.315.135a8.851,8.851,0,0,0,5.427-1.888,11.691,11.691,0,0,0,1.449-1.315A7.116,7.116,0,0,0,78.9,34.064ZM75.862,19.4a4.041,4.041,0,0,1,4.112,4.112,3.944,3.944,0,0,1-.539,2.09,4.266,4.266,0,0,1-1.517,1.483,4.253,4.253,0,0,1-4.146,0,3.776,3.776,0,0,1-1.483-1.517,4.024,4.024,0,0,1-.573-2.056,3.944,3.944,0,0,1,.539-2.09,4.266,4.266,0,0,1,1.483-1.517A4.688,4.688,0,0,1,75.862,19.4Z" transform="translate(-42.358 -15.627)"/><path class="a" d="M132.1,26.4V12.544L143.189,8.6v3.944H146.8v1.483h-3.472V33.408h-.876a13.841,13.841,0,0,1-5.292-.944,8.245,8.245,0,0,1-3.708-2.528A5.228,5.228,0,0,1,132.1,26.4Z" transform="translate(-91.349 -8.6)"/><path class="a" d="M182.914,55.6h.1a4.516,4.516,0,0,1,3.168,1.315,4.313,4.313,0,0,1,0,6.135,4.267,4.267,0,0,1-3.168,1.247,4.425,4.425,0,0,1-2.191-.573,4.648,4.648,0,0,1-1.618-1.618,4.01,4.01,0,0,1-.607-2.157,4.425,4.425,0,0,1,.573-2.191,3.98,3.98,0,0,1,1.584-1.584A4.393,4.393,0,0,1,182.914,55.6Z" transform="translate(-122.176 -39.758)"/></g></g></svg>