<svg xmlns="http://www.w3.org/2000/svg" width="86" height="32.666" viewBox="0 0 86 32.666"><defs><style>.a{fill:#2d2525;}</style></defs><g transform="translate(-6.5 -4.8)"><path class="a" d="M6.5,28.25V9.981L21.115,4.8V9.981H25.86v1.963H21.279V37.466H20.133a17.887,17.887,0,0,1-6.98-1.254,11.346,11.346,0,0,1-4.908-3.327A7,7,0,0,1,6.5,28.25Z"/><path class="a" d="M71.967,32.978l1.581.382a20.688,20.688,0,0,1-1.418,2.29,10.8,10.8,0,0,1-1.418,1.527c-2.727,2.509-6.38,3.817-11.016,3.817a16.45,16.45,0,0,1-7.8-1.8,12.331,12.331,0,0,1-3-2.127,14.882,14.882,0,0,1-2.29-2.836A13.9,13.9,0,0,1,45.791,21.8a14.259,14.259,0,0,1,3-4.526A13.354,13.354,0,0,1,58.661,13.4h.654V39.358c.873.109,1.472.164,1.745.164A11.419,11.419,0,0,0,68.2,37.013a12.3,12.3,0,0,0,1.909-1.745A7.188,7.188,0,0,0,71.967,32.978ZM67.986,13.673a4.962,4.962,0,0,1,2.727.709,5.329,5.329,0,0,1,2.672,4.69,4.962,4.962,0,0,1-.709,2.727,5.807,5.807,0,0,1-2.018,1.963,5.6,5.6,0,0,1-5.453,0,5,5,0,0,1-1.963-2.018,5.269,5.269,0,0,1-.763-2.727,4.962,4.962,0,0,1,.709-2.727,5.8,5.8,0,0,1,1.963-2.018A7.35,7.35,0,0,1,67.986,13.673Z" transform="translate(-17.368 -3.91)"/><path class="a" d="M104.9,28.25V9.981L119.515,4.8V9.981h4.744v1.963h-4.581V37.466h-1.145a17.887,17.887,0,0,1-6.98-1.254,11.346,11.346,0,0,1-4.908-3.327A7,7,0,0,1,104.9,28.25Z" transform="translate(-44.739)"/><path class="a" d="M148.426,43.1h.109a5.989,5.989,0,0,1,4.2,1.745,5.529,5.529,0,0,1,1.691,3.981,5.6,5.6,0,0,1-1.691,4.09,6.064,6.064,0,0,1-7.089.873,6.6,6.6,0,0,1-2.127-2.127,5.077,5.077,0,0,1-.818-2.836,5.715,5.715,0,0,1,.763-2.89,5.4,5.4,0,0,1,2.072-2.072A6.024,6.024,0,0,1,148.426,43.1Z" transform="translate(-61.925 -17.414)"/></g></svg>